# xmcd
#
# Track frame offsets: 
#        150
#        38124
#        68497
#        91626
#        117246
#        144666
#        176043
#        202959
#        229946
#        263827
#        288713
#        315062
#
# Disc length: 4665 seconds
#
# Revision: 2
# Processed by: cddbd v1.5.2PL0 Copyright (c) Steve Scherf et al.
# Submitted via: ExactAudioCopy v1.1
#
DISCID=a012370c
DTITLE=Various Artist - Rewired
DYEAR=2006
DGENRE=Techno
TTITLE0=Dj Preach - Oxygen Enhanced
TTITLE1=Nuclear Ramjet - Down the Wall
TTITLE2=Three Point Turn - Klush Kingdom
TTITLE3=Kali-Frogz - Dismembered
TTITLE4=Triac - Versa
TTITLE5=Tao vs Metalogic - Irrational Impulse (4x4 mix)
TTITLE6=Authentik - Les 3 Machines
TTITLE7=Spirallianz - Bp Talk
TTITLE8=Tao - Pacific Intervention
TTITLE9=Hidra - Fixed
TTITLE10=Toltech - Codigo Rojo
TTITLE11=Axiomata - New Normal (remix)
EXTD=YEAR: 2006
EXTT0=
EXTT1=
EXTT2=
EXTT3=
EXTT4=
EXTT5=
EXTT6=
EXTT7=
EXTT8=
EXTT9=
EXTT10=
EXTT11=
PLAYORDER=
